<?xml version="1.0" encoding="UTF-8" standalone="no"?>
<!-- Created with Inkscape (http://www.inkscape.org/) -->

<svg
   xmlns:dc="http://purl.org/dc/elements/1.1/"
   xmlns:cc="http://creativecommons.org/ns#"
   xmlns:rdf="http://www.w3.org/1999/02/22-rdf-syntax-ns#"
   xmlns:svg="http://www.w3.org/2000/svg"
   xmlns="http://www.w3.org/2000/svg"
   xmlns:sodipodi="http://sodipodi.sourceforge.net/DTD/sodipodi-0.dtd"
   xmlns:inkscape="http://www.inkscape.org/namespaces/inkscape"
   width="48"
   height="42"
   viewBox="0 0 12.7 11.1125"
   version="1.1"
   id="svg4512"
   inkscape:version="0.92.2 (5c3e80d, 2017-08-06)"
   sodipodi:docname="calendar-new-white.svg">
  <defs
     id="defs4506" />
  <sodipodi:namedview
     id="base"
     pagecolor="#a0a0a0"
     bordercolor="#ff0000"
     borderopacity="1"
     inkscape:pageopacity="1"
     inkscape:pageshadow="2"
     inkscape:zoom="23.047619"
     inkscape:cx="16.676635"
     inkscape:cy="22.735537"
     inkscape:document-units="mm"
     inkscape:current-layer="layer1"
     showgrid="true"
     units="px"
     inkscape:window-width="1920"
     inkscape:window-height="1137"
     inkscape:window-x="1912"
     inkscape:window-y="-8"
     inkscape:window-maximized="1">
    <inkscape:grid
       type="xygrid"
       id="grid5084" />
  </sodipodi:namedview>
  <metadata
     id="metadata4509">
    <rdf:RDF>
      <cc:Work
         rdf:about="">
        <dc:format>image/svg+xml</dc:format>
        <dc:type
           rdf:resource="http://purl.org/dc/dcmitype/StillImage" />
        <dc:title></dc:title>
      </cc:Work>
    </rdf:RDF>
  </metadata>
  <g
     inkscape:label="Layer 1"
     inkscape:groupmode="layer"
     id="layer1"
     transform="translate(0,-285.8875)">
    <path
       style="fill:#ffffff;fill-opacity:1;stroke-width:0.04491137"
       d="m 12.861328,1.2382812 c -0.824777,0 -1.457031,1.1328126 -1.457031,1.1328126 H 7.4355469 c -1.116522,0 -2.1618683,0.4396426 -2.9492188,1.2421874 C 3.6989775,4.4159017 3.2636719,5.4874623 3.2636719,6.6210938 V 32.882812 c 0,1.133594 0.4358478,2.203906 1.21875,3.001954 0.7917989,0.802582 1.8371449,1.248046 2.9492187,1.248046 l 17.4062504,0.0039 -0.132813,-0.167969 C 24.055627,36.14349 23.520898,35.218966 23.125,34.230469 l 0.01758,-0.06445 H 7.4414062 c -0.3336222,0 -0.6465108,-0.135 -0.8867187,-0.375 C 6.3144834,33.546102 6.1855469,33.22297 6.1855469,32.882812 V 16.400391 H 37.445312 c 0.871871,0.126954 1.712111,0.358995 2.503907,0.685547 l 0.136719,0.05859 V 6.625 C 40.085937,5.4868331 39.650629,4.4217233 38.863281,3.6191406 38.075926,2.8165202 37.026136,2.3710938 35.914062,2.3710938 h -2.611328 c 0,0 -0.632254,-1.1328126 -1.457031,-1.1328126 -0.824777,0 -1.457031,1.1328126 -1.457031,1.1328126 H 14.318359 c 0,0 -0.632254,-1.1328126 -1.457031,-1.1328126 z M 7.4316406,6.0214844 h 3.9687504 v 1.0117187 c 0,0 0.891804,0.4335938 1.457031,0.4335938 0.565227,0 1.455078,-0.4335938 1.455078,-0.4335938 V 6.0214844 h 16.068359 v 1.0117187 c 0,0 0.891804,0.4335938 1.457032,0.4335938 0.565227,0 1.457031,-0.4335938 1.457031,-0.4335938 V 6.0214844 h 2.611328 c 0.333622,0 0.649006,0.1369531 0.884766,0.3769531 0.240204,0.2403024 0.36914,0.5576508 0.36914,0.9023437 V 14.111328 H 6.1738281 V 7.3007812 c 0,-0.3401196 0.1333813,-0.6623437 0.3691407,-0.9023437 C 6.7831766,6.1535241 7.0980179,6.0214844 7.4316406,6.0214844 Z M 35.910156,18.78125 c -6.036335,0 -10.947265,5.006972 -10.947265,11.160156 0,6.153147 4.91093,11.158203 10.947265,11.158203 6.036352,0 10.947266,-5.005056 10.947266,-11.158203 0,-6.153184 -4.910914,-11.160156 -10.947266,-11.160156 z M 8,19 v 3 h 17 c 0,0 1.134405,-1.29484 1.945312,-1.796875 C 28.046283,19.521487 30,19 30,19 Z m 27.910156,2.751953 c 4.430514,0 8.033203,3.673182 8.033203,8.189453 0,4.516271 -3.602689,8.1875 -8.033203,8.1875 -4.430501,0 -8.033203,-3.671229 -8.033203,-8.1875 0,-4.516271 3.602702,-8.189453 8.033203,-8.189453 z m -0.002,0.947266 -1.457031,1.609375 v 7.11914 h 6.978516 l 1.519531,-1.484375 -1.519531,-1.486328 H 37.365234 V 24.308594 Z M 8,24 v 3 h 15 l 1,-3 z m 10e-8,5 v 3 H 22 v -3 z"
       transform="matrix(0.26458333,0,0,0.26458333,0,285.8875)"
       id="path4"
       inkscape:connector-curvature="0"
       sodipodi:nodetypes="scscssccccccscsccccscscsccssccsccccsccscsccscssssssccccccsssssccccccccccccccccccc" />
    <path
       style="fill:#ffffff;fill-opacity:1;fill-rule:evenodd;stroke:#ffffff;stroke-width:0.13836868px;stroke-linecap:butt;stroke-linejoin:miter;stroke-opacity:1"
       d="m 2.0730091,288.27126 h 1.3665742 v 0.58843 H 1.9753967 v -0.58843 z"
       id="path5865-5"
       inkscape:connector-curvature="0" />
    <path
       style="fill:#ffffff;fill-opacity:1;fill-rule:evenodd;stroke:#ffffff;stroke-width:0.13797218px;stroke-linecap:butt;stroke-linejoin:miter;stroke-opacity:1"
       d="m 4.2095225,288.27126 h 1.3587531 v 0.58843 H 4.1124687 v -0.58843 z"
       id="path5865-5-2"
       inkscape:connector-curvature="0" />
    <path
       style="fill:#ffffff;fill-opacity:1;fill-rule:evenodd;stroke:#ffffff;stroke-width:0.19090448px;stroke-linecap:butt;stroke-linejoin:miter;stroke-opacity:1"
       d="m 6.394537,288.27126 h 2.6012964 v 0.58843 H 6.2087301 v -0.58843 z"
       id="path5865-5-4"
       inkscape:connector-curvature="0" />
    <circle
       style="opacity:1;fill:#ff0000;fill-opacity:1;stroke:none;stroke-width:0.33124998;stroke-miterlimit:4;stroke-dasharray:none;stroke-opacity:0"
       id="path828"
       cx="10.682279"
       cy="287.90521"
       r="1.984375" />
  </g>
</svg>
