<?xml version="1.0" encoding="UTF-8" standalone="no"?>
<!-- Created with Inkscape (http://www.inkscape.org/) -->

<svg
   xmlns:dc="http://purl.org/dc/elements/1.1/"
   xmlns:cc="http://creativecommons.org/ns#"
   xmlns:rdf="http://www.w3.org/1999/02/22-rdf-syntax-ns#"
   xmlns:svg="http://www.w3.org/2000/svg"
   xmlns="http://www.w3.org/2000/svg"
   xmlns:sodipodi="http://sodipodi.sourceforge.net/DTD/sodipodi-0.dtd"
   xmlns:inkscape="http://www.inkscape.org/namespaces/inkscape"
   width="48"
   height="42"
   viewBox="0 0 12.7 11.1125"
   version="1.1"
   id="svg4512"
   inkscape:version="0.92.2 (5c3e80d, 2017-08-06)"
   sodipodi:docname="contacts-white-02.svg">
  <defs
     id="defs4506" />
  <sodipodi:namedview
     id="base"
     pagecolor="#a0a0a0"
     bordercolor="#ff0000"
     borderopacity="1"
     inkscape:pageopacity="1"
     inkscape:pageshadow="2"
     inkscape:zoom="23.047619"
     inkscape:cx="16.754132"
     inkscape:cy="21"
     inkscape:document-units="mm"
     inkscape:current-layer="layer1"
     showgrid="true"
     units="px"
     inkscape:window-width="1920"
     inkscape:window-height="1137"
     inkscape:window-x="1912"
     inkscape:window-y="-8"
     inkscape:window-maximized="1"
     showguides="false">
    <inkscape:grid
       type="xygrid"
       id="grid5084" />
  </sodipodi:namedview>
  <metadata
     id="metadata4509">
    <rdf:RDF>
      <cc:Work
         rdf:about="">
        <dc:format>image/svg+xml</dc:format>
        <dc:type
           rdf:resource="http://purl.org/dc/dcmitype/StillImage" />
        <dc:title></dc:title>
      </cc:Work>
    </rdf:RDF>
  </metadata>
  <g
     inkscape:label="Layer 1"
     inkscape:groupmode="layer"
     id="layer1"
     transform="translate(0,-285.8875)">
    <path
       style="fill:none;fill-rule:evenodd;stroke:#ffffff;stroke-width:0.26458332px;stroke-linecap:butt;stroke-linejoin:miter;stroke-opacity:1"
       d="m 1.3229166,286.75559 v 9.26315 c -0.040268,0.56731 0.5248367,0.53245 1.0577866,0.53245 h 7.9377728 c 0.56469,0.0402 1.058607,0.004 1.058607,-0.52671 v -3.44203 H 10.31875 c 0,0 -0.264583,-0.13986 -0.264583,-0.26459 v -2.64584 c 0,-0.12472 0.264583,-0.26458 0.264583,-0.26458 h 1.058333 v -2.65185 c 0.04122,-0.56279 -0.531167,-0.52315 -1.058607,-0.52315 H 2.3807032 c -0.5623298,-0.0397 -1.0577866,-0.005 -1.0577866,0.52315 z"
       id="path5905"
       inkscape:connector-curvature="0"
       sodipodi:nodetypes="cccccccsscccccc" />
    <path
       style="fill:#ffffff;fill-opacity:1;fill-rule:evenodd;stroke:none;stroke-width:0.36279604px;stroke-linecap:butt;stroke-linejoin:miter;stroke-opacity:1"
       d="M 4.5508334,293.34778 H 8.6254167 L 7.14375,291.57111 c 0,0 0.6071879,-0.40115 0.7408334,-0.71065 0.1890038,-0.43772 0.189003,-0.98362 0,-1.42134 -0.1336455,-0.30951 -0.4181848,-0.58245 -0.7408334,-0.71066 -0.3422205,-0.13597 -0.7690296,-0.13597 -1.11125,0 -0.3226485,0.12826 -0.607188,0.40115 -0.7408334,0.71066 -0.189003,0.43772 -0.1890039,0.98362 0,1.42134 0.1336454,0.3095 0.740834,0.71065 0.740834,0.71065 l -1.4816672,1.77667"
       id="path5086-6"
       inkscape:connector-curvature="0"
       sodipodi:nodetypes="cccsssssscc" />
    <path
       style="fill:none;fill-rule:evenodd;stroke:#ffffff;stroke-width:0.26458332px;stroke-linecap:butt;stroke-linejoin:miter;stroke-opacity:1"
       d="m 3.175,286.15208 v 10.31875"
       id="path5915"
       inkscape:connector-curvature="0" />
    <path
       style="fill:none;fill-rule:evenodd;stroke:#ffffff;stroke-width:0.32404706px;stroke-linecap:butt;stroke-linejoin:miter;stroke-opacity:1"
       d="m 1.0583333,287.73958 c 0.79375,0 0.79375,0 0.79375,0"
       id="path5919"
       inkscape:connector-curvature="0" />
    <path
       style="fill:none;fill-rule:evenodd;stroke:#ffffff;stroke-width:0.32404706px;stroke-linecap:butt;stroke-linejoin:miter;stroke-opacity:1"
       d="m 1.0583333,291.31146 c 0.79375,0 0.79375,0 0.79375,0"
       id="path5919-7"
       inkscape:connector-curvature="0" />
    <path
       style="fill:none;fill-rule:evenodd;stroke:#ffffff;stroke-width:0.32404703px;stroke-linecap:butt;stroke-linejoin:miter;stroke-opacity:1"
       d="m 1.0583333,294.88333 c 0.79375,0 0.79375,0 0.79375,0"
       id="path5919-5"
       inkscape:connector-curvature="0" />
    <path
       style="fill:#ffffff;fill-opacity:1;fill-rule:evenodd;stroke:#ffffff;stroke-width:0.26458332px;stroke-linecap:butt;stroke-linejoin:miter;stroke-opacity:1"
       d="m 10.583333,290.12083 c 0.01965,0.51918 -0.0091,1.00027 0,1.5875 0.0019,0.12471 0.264584,0.26459 0.264584,0.26459 l 0.79375,0 c 0,0 0.264583,-0.13986 0.264583,-0.26459 0,-0.52916 0,-1.05833 0,-1.5875 0,-0.12472 -0.264583,-0.26458 -0.264583,-0.26458 h -0.79375 c 0,0 -0.269302,0.13994 -0.264584,0.26458 z"
       id="path5956"
       inkscape:connector-curvature="0"
       sodipodi:nodetypes="ssccssccs" />
    <path
       style="fill:none;fill-rule:evenodd;stroke:#ffffff;stroke-width:0.32404706px;stroke-linecap:butt;stroke-linejoin:miter;stroke-opacity:1"
       d="m 1.0583333,289.52552 c 0.79375,0 0.79375,0 0.79375,0"
       id="path5919-35"
       inkscape:connector-curvature="0" />
    <path
       style="fill:none;fill-rule:evenodd;stroke:#ffffff;stroke-width:0.32404706px;stroke-linecap:butt;stroke-linejoin:miter;stroke-opacity:1"
       d="m 1.0583333,293.09739 c 0.79375,0 0.79375,0 0.79375,0"
       id="path5919-8"
       inkscape:connector-curvature="0" />
  </g>
</svg>
