<?xml version="1.0" encoding="UTF-8" standalone="no"?>
<!-- Created with Inkscape (http://www.inkscape.org/) -->

<svg
   xmlns:dc="http://purl.org/dc/elements/1.1/"
   xmlns:cc="http://creativecommons.org/ns#"
   xmlns:rdf="http://www.w3.org/1999/02/22-rdf-syntax-ns#"
   xmlns:svg="http://www.w3.org/2000/svg"
   xmlns="http://www.w3.org/2000/svg"
   xmlns:sodipodi="http://sodipodi.sourceforge.net/DTD/sodipodi-0.dtd"
   xmlns:inkscape="http://www.inkscape.org/namespaces/inkscape"
   width="48"
   height="42"
   viewBox="0 0 12.7 11.1125"
   version="1.1"
   id="svg4520"
   inkscape:version="0.92.2 (5c3e80d, 2017-08-06)"
   sodipodi:docname="contacts-white.svg">
  <defs
     id="defs4514" />
  <sodipodi:namedview
     id="base"
     pagecolor="#a0a0a0"
     bordercolor="#ff0000"
     borderopacity="1"
     inkscape:pageopacity="1"
     inkscape:pageshadow="2"
     inkscape:zoom="23.047619"
     inkscape:cx="24"
     inkscape:cy="21"
     inkscape:document-units="mm"
     inkscape:current-layer="layer1"
     showgrid="true"
     units="px"
     inkscape:window-width="1920"
     inkscape:window-height="1137"
     inkscape:window-x="1912"
     inkscape:window-y="-8"
     inkscape:window-maximized="1">
    <inkscape:grid
       type="xygrid"
       id="grid5065" />
  </sodipodi:namedview>
  <metadata
     id="metadata4517">
    <rdf:RDF>
      <cc:Work
         rdf:about="">
        <dc:format>image/svg+xml</dc:format>
        <dc:type
           rdf:resource="http://purl.org/dc/dcmitype/StillImage" />
        <dc:title></dc:title>
      </cc:Work>
    </rdf:RDF>
  </metadata>
  <g
     inkscape:label="Layer 1"
     inkscape:groupmode="layer"
     id="layer1"
     transform="translate(0,-285.88748)">
    <path
       inkscape:connector-curvature="0"
       id="path4"
       d="m 1.8801646,285.83626 c -0.3304591,0 -0.5766836,0.23654 -0.5766836,0.5511 v 1.81308 H 0.47798128 c -0.24752034,0 -0.49504068,0.23654 -0.49504068,0.47308 0,0.23654 0.24752034,0.47308 0.49504068,0.47308 H 1.3021851 v 1.57654 H 0.47798128 c -0.24752034,0 -0.49504068,0.23654 -0.49504068,0.47308 0,0.23654 0.24752034,0.47308 0.49504068,0.47308 H 1.3021851 v 1.57653 H 0.47798128 c -0.24752034,-0.001 -0.49504068,0.23531 -0.49504068,0.47185 0,0.23654 0.24752034,0.47308 0.49504068,0.47308 H 1.3021851 v 2.04962 c 0,0.3158 0.2475204,0.5511 0.5766835,0.5511 H 3.6931538 V 285.75824 H 1.8788686 v 0.078 z m 0.4121019,8.59104 c -0.1645816,0 -0.3304591,-0.0793 -0.4950407,-0.23654 h 0.4121019 c 0.2475204,0 0.4950407,-0.23654 0.4950407,-0.47308 0,-0.23654 -0.2475203,-0.39383 -0.4950407,-0.39383 H 1.7972258 c 0.1645816,-0.0793 0.3304591,-0.15728 0.4950407,-0.15728 0.4121019,0 0.742561,0.3158 0.742561,0.70963 0,0.31456 -0.3304591,0.5511 -0.742561,0.5511 z m 0,-2.5227 c -0.1645816,0 -0.3304591,-0.0793 -0.4950407,-0.23654 h 0.4121019 c 0.2475204,0 0.4950407,-0.23654 0.4950407,-0.47308 0,-0.23654 -0.2475203,-0.47308 -0.4950407,-0.47308 H 1.7972258 c 0.1645816,-0.0793 0.3304591,-0.15728 0.4950407,-0.15728 0.4121019,0 0.742561,0.3158 0.742561,0.70962 0,0.3158 -0.3304591,0.63036 -0.742561,0.63036 z m 0,-2.52145 c -0.1645816,0 -0.3304591,-0.0793 -0.4950407,-0.23655 h 0.4121019 c 0.2475204,0 0.4950407,-0.23654 0.4950407,-0.47308 0,-0.23654 -0.2475203,-0.47308 -0.4950407,-0.47308 H 1.7972258 c 0.1645816,-0.0793 0.3304591,-0.15728 0.4950407,-0.15728 0.4121019,0 0.742561,0.3158 0.742561,0.63036 0,0.39382 -0.3304591,0.70963 -0.742561,0.70963 z m 10.2260885,0.70962 h -1.649703 c -0.08294,0 -0.164582,0.0793 -0.164582,0.15728 v 2.12764 c 0,0.0793 0.08294,0.15728 0.164582,0.15728 h 1.649703 c 0.08294,0 0.164582,-0.0793 0.164582,-0.15728 v -2.12764 c 0,-0.0793 -0.08294,-0.15728 -0.164582,-0.15728 z m -2.061805,2.28492 v -2.12764 c 0,-0.23654 0.164581,-0.39382 0.412102,-0.39382 h 1.566765 v -3.46763 c 0,-0.3158 -0.330459,-0.5511 -0.659623,-0.5511 H 3.9419701 v 11.03324 h 7.8338239 c 0.330459,0 0.576684,-0.23654 0.576684,-0.5511 v -3.54813 h -1.566765 c -0.164582,0 -0.329163,-0.15728 -0.329163,-0.39382 z m -4.9003,1.44729 1.4363111,-1.91914 c -0.5766835,-0.15728 -0.9900814,-0.70962 -0.9900814,-1.33999 0,-0.78764 0.6596223,-1.41801 1.4838261,-1.41801 0.8242039,0 1.4838261,0.63037 1.4838261,1.41801 0,0.63037 -0.4121019,1.18271 -0.9900813,1.33999 L 9.525,293.82498 Z"
       style="stroke-width:0.01266852;fill:#ffffff;fill-opacity:1"
       sodipodi:nodetypes="cscsssccssscccsscsscccccscssscsssscssscsssscssscssssssssssssssscssccsscssccsssccc" />
  </g>
</svg>
