<?xml version="1.0" encoding="UTF-8" standalone="no"?>
<!-- Created with Inkscape (http://www.inkscape.org/) -->

<svg
   xmlns:dc="http://purl.org/dc/elements/1.1/"
   xmlns:cc="http://creativecommons.org/ns#"
   xmlns:rdf="http://www.w3.org/1999/02/22-rdf-syntax-ns#"
   xmlns:svg="http://www.w3.org/2000/svg"
   xmlns="http://www.w3.org/2000/svg"
   xmlns:sodipodi="http://sodipodi.sourceforge.net/DTD/sodipodi-0.dtd"
   xmlns:inkscape="http://www.inkscape.org/namespaces/inkscape"
   width="48"
   height="42"
   viewBox="0 0 12.7 11.1125"
   version="1.1"
   id="svg860"
   inkscape:version="0.92.2 (5c3e80d, 2017-08-06)"
   sodipodi:docname="email-white.svg">
  <defs
     id="defs854" />
  <sodipodi:namedview
     id="base"
     pagecolor="#a0a0a0"
     bordercolor="#ff0000"
     borderopacity="1"
     inkscape:pageopacity="1"
     inkscape:pageshadow="2"
     inkscape:zoom="23.047619"
     inkscape:cx="24"
     inkscape:cy="24.270026"
     inkscape:document-units="mm"
     inkscape:current-layer="layer1"
     showgrid="true"
     units="px"
     inkscape:window-width="1920"
     inkscape:window-height="1137"
     inkscape:window-x="1912"
     inkscape:window-y="-8"
     inkscape:window-maximized="1">
    <inkscape:grid
       type="xygrid"
       id="grid1408" />
  </sodipodi:namedview>
  <metadata
     id="metadata857">
    <rdf:RDF>
      <cc:Work
         rdf:about="">
        <dc:format>image/svg+xml</dc:format>
        <dc:type
           rdf:resource="http://purl.org/dc/dcmitype/StillImage" />
        <dc:title></dc:title>
      </cc:Work>
    </rdf:RDF>
  </metadata>
  <g
     inkscape:label="Layer 1"
     inkscape:groupmode="layer"
     id="layer1"
     transform="translate(0,-285.88748)">
    <g
       id="g12"
       transform="matrix(0.02414973,0,0,0.02414973,0.16886149,285.2608)"
       style="fill:#ffffff;fill-opacity:0.94117647">
      <path
         d="M 491,176.2 261.3,334.6 c -1.6,1.1 -3.5,1.7 -5.3,1.7 -1.8,0 -3.7,-0.6 -5.3,-1.7 L 21,176.2 c -9.1,7.2 -15,18.3 -15,30.9 v 239.7 c 0,21.7 17.6,39.3 39.3,39.3 h 421.3 c 21.7,0 39.3,-17.6 39.3,-39.3 V 207 C 506,194.5 500.1,183.4 491,176.2 Z M 187.1,330.2 71,446.3 c -0.9,0.9 -2.1,1.4 -3.3,1.4 -1.2,0 -2.4,-0.5 -3.3,-1.4 -1.8,-1.8 -1.8,-4.8 0,-6.6 L 180.5,323.6 c 1.8,-1.8 4.8,-1.8 6.6,0 1.9,1.8 1.9,4.8 0,6.6 z m 260.5,116.1 c -0.9,0.9 -2.1,1.4 -3.3,1.4 -1.2,0 -2.4,-0.5 -3.3,-1.4 L 324.9,330.2 c -1.8,-1.8 -1.8,-4.8 0,-6.6 1.8,-1.8 4.8,-1.8 6.6,0 l 116.1,116.1 c 1.8,1.8 1.8,4.8 0,6.6 z"
         id="path2"
         inkscape:connector-curvature="0"
         style="fill:#ffffff;fill-opacity:0.94117647" />
      <g
         id="g10"
         style="fill:#ffffff;fill-opacity:0.94117647">
        <rect
           height="14"
           id="XMLID_6_"
           width="216"
           x="148"
           y="209.2"
           style="fill:#ffffff;fill-opacity:0.94117647" />
        <polygon
           id="XMLID_5_"
           points="349.7,250.9 364,241 364,236.9 148,236.9 148,241 162.3,250.9 "
           style="fill:#ffffff;fill-opacity:0.94117647" />
        <rect
           height="14"
           id="XMLID_4_"
           width="216"
           x="148"
           y="181.5"
           style="fill:#ffffff;fill-opacity:0.94117647" />
        <path
           d="M 464,163.8 271,30.6 c -9.1,-6.2 -21,-6.2 -30.1,0 L 48,163.8 c -2.9,2 -2.9,6.2 0,8.2 l 64,44.2 v -77.8 h 288 v 77.8 L 464,172 c 2.9,-2 2.9,-6.2 0,-8.2 z"
           id="XMLID_3_"
           inkscape:connector-curvature="0"
           style="fill:#ffffff;fill-opacity:0.94117647" />
        <polygon
           id="XMLID_2_"
           points="182.1,264.5 202.4,278.5 309.6,278.5 329.9,264.5 "
           style="fill:#ffffff;fill-opacity:0.94117647" />
        <path
           d="m 289.8,292.2 h -67.5 l 18.7,12.9 c 0.6,0.4 1.1,0.7 1.7,1.1 h 26.7 c 0.6,-0.3 1.1,-0.7 1.7,-1.1 z"
           id="XMLID_1_"
           inkscape:connector-curvature="0"
           style="fill:#ffffff;fill-opacity:0.94117647" />
      </g>
    </g>
  </g>
</svg>
