<?xml version="1.0" encoding="UTF-8" standalone="no"?>
<svg
   xmlns:dc="http://purl.org/dc/elements/1.1/"
   xmlns:cc="http://creativecommons.org/ns#"
   xmlns:rdf="http://www.w3.org/1999/02/22-rdf-syntax-ns#"
   xmlns:svg="http://www.w3.org/2000/svg"
   xmlns="http://www.w3.org/2000/svg"
   xmlns:sodipodi="http://sodipodi.sourceforge.net/DTD/sodipodi-0.dtd"
   xmlns:inkscape="http://www.inkscape.org/namespaces/inkscape"
   version="1.1"
   x="0px"
   y="0px"
   width="480px"
   height="480px"
   viewBox="0 0 480 480"
   style="enable-background:new 0 0 480 480;"
   xml:space="preserve"
   id="svg4"
   sodipodi:docname="home-white.svg"
   inkscape:version="0.92.2 (5c3e80d, 2017-08-06)"><metadata
     id="metadata10"><rdf:RDF><cc:Work
         rdf:about=""><dc:format>image/svg+xml</dc:format><dc:type
           rdf:resource="http://purl.org/dc/dcmitype/StillImage" /><dc:title></dc:title></cc:Work></rdf:RDF></metadata><defs
     id="defs8" /><sodipodi:namedview
     pagecolor="#ffffff"
     bordercolor="#666666"
     borderopacity="1"
     objecttolerance="10"
     gridtolerance="10"
     guidetolerance="10"
     inkscape:pageopacity="0"
     inkscape:pageshadow="2"
     inkscape:window-width="1920"
     inkscape:window-height="1137"
     id="namedview6"
     showgrid="false"
     inkscape:zoom="0.49166667"
     inkscape:cx="-13.220339"
     inkscape:cy="240"
     inkscape:window-x="1912"
     inkscape:window-y="-8"
     inkscape:window-maximized="1"
     inkscape:current-layer="svg4" /><path
     style="clip-rule:evenodd;fill-rule:evenodd;stroke-width:1.41659892;fill:#ffffff;fill-opacity:1"
     d="M 230.56722,128.88119 C 223.9132,135.5517 132.76735,222.21877 79.651161,272.69513 V 450.37512 H 192.83891 V 308.53976 H 287.1611 V 450.37512 H 400.34883 V 272.40295 C 345.13586,219.77352 249.43278,128.88119 249.43278,128.88119 c 0,0 -9.43278,-9.45617 -18.86556,0 z M 400.34883,72.147039 c 0,-10.443337 -8.44663,-18.910907 -18.86414,-18.910907 h -37.72972 c -10.41753,0 -18.86416,8.46757 -18.86416,18.910907 v 16.399003 c 23.90384,22.919168 50.93165,48.785688 75.45802,72.239588 z m 75.45945,179.658581 c 0,0 -198.07855,-189.114745 -216.94412,-208.025652 -18.86416,-18.910908 -37.72832,0 -37.72832,0 0,0 -207.511337,198.569502 -216.9441204,208.025652 -9.431369,9.45474 0,18.91091 0,18.91091 0,0 9.4327834,9.45617 18.8655684,18.9109 9.431368,9.45617 18.864153,0 18.864153,0 0,0 179.214399,-170.20241 188.645779,-179.65715 9.43278,-9.45617 18.86556,0 18.86556,0 0,0 179.21299,170.20242 188.64577,179.65715 9.43279,9.45617 18.86417,0 18.86417,0 0,0 0,0 18.86556,-18.9109 9.43137,-9.45617 0,-18.91091 0,-18.91091 z"
     id="path2"
     inkscape:connector-curvature="0" /></svg>