<?xml version="1.0" encoding="UTF-8" standalone="no"?>
<!-- Created with Inkscape (http://www.inkscape.org/) -->

<svg
   xmlns:dc="http://purl.org/dc/elements/1.1/"
   xmlns:cc="http://creativecommons.org/ns#"
   xmlns:rdf="http://www.w3.org/1999/02/22-rdf-syntax-ns#"
   xmlns:svg="http://www.w3.org/2000/svg"
   xmlns="http://www.w3.org/2000/svg"
   xmlns:sodipodi="http://sodipodi.sourceforge.net/DTD/sodipodi-0.dtd"
   xmlns:inkscape="http://www.inkscape.org/namespaces/inkscape"
   width="20"
   height="20"
   viewBox="0 0 5.2916665 5.2916665"
   version="1.1"
   id="svg8"
   inkscape:version="0.92.2 (5c3e80d, 2017-08-06)"
   sodipodi:docname="logo-white-shadow.svg">
  <defs
     id="defs2" />
  <sodipodi:namedview
     id="base"
     pagecolor="#a0a0a0"
     bordercolor="#ff0000"
     borderopacity="1"
     inkscape:pageopacity="0"
     inkscape:pageshadow="2"
     inkscape:zoom="34.223968"
     inkscape:cx="6.5110752"
     inkscape:cy="9.6065397"
     inkscape:document-units="mm"
     inkscape:current-layer="layer1"
     showgrid="false"
     units="px"
     showguides="true"
     inkscape:window-width="1920"
     inkscape:window-height="1137"
     inkscape:window-x="1912"
     inkscape:window-y="-8"
     inkscape:window-maximized="1">
    <inkscape:grid
       type="xygrid"
       id="grid10" />
  </sodipodi:namedview>
  <metadata
     id="metadata5">
    <rdf:RDF>
      <cc:Work
         rdf:about="">
        <dc:format>image/svg+xml</dc:format>
        <dc:type
           rdf:resource="http://purl.org/dc/dcmitype/StillImage" />
        <dc:title></dc:title>
      </cc:Work>
    </rdf:RDF>
  </metadata>
  <g
     inkscape:label="Layer 1"
     inkscape:groupmode="layer"
     id="layer1"
     transform="translate(0,-291.70833)">
    <path
       style="fill:none;fill-rule:evenodd;stroke:#000000;stroke-width:0.26458332px;stroke-linecap:butt;stroke-linejoin:miter;stroke-opacity:0.50196081"
       d="m 1.3229165,294.61876 c -0.1972083,0 -0.4254877,0.0968 -0.52916664,0.26458 -0.0927341,0.15005 -0.067502,0.36621 0,0.52917 0.0477306,0.11523 0.26458334,0.26458 0.26458334,0.26458 l -0.52916667,0.52917 H 2.1166665 l -0.5291666,-0.52917 c 0,0 0.2168528,-0.14935 0.2645833,-0.26458 0.067502,-0.16296 0.092734,-0.37912 0,-0.52917 -0.103679,-0.16776 -0.3319584,-0.26458 -0.5291667,-0.26458 z"
       id="path4818"
       inkscape:connector-curvature="0"
       sodipodi:nodetypes="sssccccsss" />
    <path
       style="fill:none;fill-rule:evenodd;stroke:#000000;stroke-width:0.26458332px;stroke-linecap:butt;stroke-linejoin:miter;stroke-opacity:0.50196081"
       d="m 2.6458332,292.50209 c -0.1972083,0 -0.4254876,0.0968 -0.5291666,0.26458 -0.092734,0.15005 -0.067502,0.36621 0,0.52917 0.047731,0.11523 0.2645833,0.26458 0.2645833,0.26458 l -0.5291666,0.52917 h 1.5874999 l -0.5291666,-0.52917 c 0,0 0.2168528,-0.14935 0.2645834,-0.26458 0.067502,-0.16296 0.092734,-0.37912 0,-0.52917 -0.1036791,-0.16776 -0.3319585,-0.26458 -0.5291668,-0.26458 z"
       id="path4818-1"
       inkscape:connector-curvature="0"
       sodipodi:nodetypes="sssccccsss" />
    <path
       style="fill:none;fill-rule:evenodd;stroke:#000000;stroke-width:0.26458332px;stroke-linecap:butt;stroke-linejoin:miter;stroke-opacity:0.50196081"
       d="m 3.9687499,294.61875 c -0.1972082,0 -0.4254876,0.0968 -0.5291665,0.26458 -0.092734,0.15005 -0.067502,0.36621 0,0.52917 0.047731,0.11523 0.2645833,0.26458 0.2645833,0.26458 L 3.175,296.20625 h 1.5874999 l -0.5291666,-0.52917 c 0,0 0.2168528,-0.14935 0.2645834,-0.26458 0.067502,-0.16296 0.092734,-0.37912 0,-0.52917 -0.1036791,-0.16776 -0.3319585,-0.26458 -0.5291668,-0.26458 z"
       id="path4818-7"
       inkscape:connector-curvature="0"
       sodipodi:nodetypes="sssccccsss" />
    <path
       style="fill:none;fill-rule:evenodd;stroke:#000000;stroke-width:0.26458332px;stroke-linecap:butt;stroke-linejoin:miter;stroke-opacity:0.50196081"
       d="m 3.9687499,293.29584 c 0,0 0.7121313,0.22182 0.79375,0.52916 0.050618,0.1906 -0.2645833,0.52917 -0.2645833,0.52917"
       id="path4847"
       inkscape:connector-curvature="0"
       sodipodi:nodetypes="csc" />
    <path
       style="fill:none;fill-rule:evenodd;stroke:#000000;stroke-width:0.26458332px;stroke-linecap:butt;stroke-linejoin:miter;stroke-opacity:0.50196081"
       d="m 1.3229165,293.29584 c 0,0 -0.71213121,0.22182 -0.7937499,0.52916 -0.0506182,0.1906 0.26458333,0.52917 0.26458333,0.52917"
       id="path4849"
       inkscape:connector-curvature="0"
       sodipodi:nodetypes="csc" />
    <g
       id="g4902"
       transform="translate(-0.04638562,0.04638562)">
      <path
         sodipodi:nodetypes="sssccccsss"
         inkscape:connector-curvature="0"
         id="path4818-70"
         d="m 1.2361448,294.47787 c -0.1972083,0 -0.42548772,0.0968 -0.52916666,0.26458 -0.0927341,0.15005 -0.067502,0.36621 0,0.52917 0.0477306,0.11523 0.26458337,0.26458 0.26458337,0.26458 l -0.5291667,0.52917 H 2.0298948 L 1.5007282,295.5362 c 0,0 0.2168528,-0.14935 0.2645833,-0.26458 0.067502,-0.16296 0.092734,-0.37912 0,-0.52917 -0.103679,-0.16776 -0.3319584,-0.26458 -0.5291667,-0.26458 z"
         style="fill:none;fill-rule:evenodd;stroke:#ffffff;stroke-width:0.26458332px;stroke-linecap:butt;stroke-linejoin:miter;stroke-opacity:1" />
      <path
         sodipodi:nodetypes="sssccccsss"
         inkscape:connector-curvature="0"
         id="path4818-1-5"
         d="m 2.5590615,292.3612 c -0.1972083,0 -0.4254876,0.0968 -0.5291666,0.26458 -0.092734,0.15005 -0.067502,0.36621 0,0.52917 0.047731,0.11523 0.2645833,0.26458 0.2645833,0.26458 l -0.5291666,0.52917 h 1.5874999 l -0.5291666,-0.52917 c 0,0 0.2168528,-0.14935 0.2645834,-0.26458 0.067502,-0.16296 0.092734,-0.37912 0,-0.52917 -0.1036791,-0.16776 -0.3319585,-0.26458 -0.5291668,-0.26458 z"
         style="fill:none;fill-rule:evenodd;stroke:#ffffff;stroke-width:0.26458332px;stroke-linecap:butt;stroke-linejoin:miter;stroke-opacity:1" />
      <path
         sodipodi:nodetypes="sssccccsss"
         inkscape:connector-curvature="0"
         id="path4818-7-4"
         d="m 3.8819782,294.47786 c -0.1972082,0 -0.4254876,0.0968 -0.5291665,0.26458 -0.092734,0.15005 -0.067502,0.36621 0,0.52917 0.047731,0.11523 0.2645833,0.26458 0.2645833,0.26458 l -0.5291667,0.52917 h 1.5874999 l -0.5291666,-0.52917 c 0,0 0.2168528,-0.14935 0.2645834,-0.26458 0.067502,-0.16296 0.092734,-0.37912 0,-0.52917 -0.1036791,-0.16776 -0.3319585,-0.26458 -0.5291668,-0.26458 z"
         style="fill:none;fill-rule:evenodd;stroke:#ffffff;stroke-width:0.26458332px;stroke-linecap:butt;stroke-linejoin:miter;stroke-opacity:1" />
      <path
         sodipodi:nodetypes="csc"
         inkscape:connector-curvature="0"
         id="path4847-6"
         d="m 3.8819782,293.15495 c 0,0 0.7121313,0.22182 0.79375,0.52916 0.050618,0.1906 -0.2645833,0.52917 -0.2645833,0.52917"
         style="fill:none;fill-rule:evenodd;stroke:#ffffff;stroke-width:0.26458332px;stroke-linecap:butt;stroke-linejoin:miter;stroke-opacity:1" />
      <path
         sodipodi:nodetypes="csc"
         inkscape:connector-curvature="0"
         id="path4849-9"
         d="m 1.2361448,293.15495 c 0,0 -0.71213123,0.22182 -0.79374992,0.52916 -0.0506182,0.1906 0.26458333,0.52917 0.26458333,0.52917"
         style="fill:none;fill-rule:evenodd;stroke:#ffffff;stroke-width:0.26458332px;stroke-linecap:butt;stroke-linejoin:miter;stroke-opacity:1" />
    </g>
  </g>
</svg>
