<?xml version="1.0" encoding="UTF-8" standalone="no"?>
<!-- Created with Inkscape (http://www.inkscape.org/) -->

<svg
   xmlns:osb="http://www.openswatchbook.org/uri/2009/osb"
   xmlns:dc="http://purl.org/dc/elements/1.1/"
   xmlns:cc="http://creativecommons.org/ns#"
   xmlns:rdf="http://www.w3.org/1999/02/22-rdf-syntax-ns#"
   xmlns:svg="http://www.w3.org/2000/svg"
   xmlns="http://www.w3.org/2000/svg"
   xmlns:sodipodi="http://sodipodi.sourceforge.net/DTD/sodipodi-0.dtd"
   xmlns:inkscape="http://www.inkscape.org/namespaces/inkscape"
   width="48"
   height="42"
   viewBox="0 0 12.7 11.1125"
   version="1.1"
   id="svg8"
   inkscape:version="0.92.2 (5c3e80d, 2017-08-06)"
   sodipodi:docname="message-new-white.svg">
  <defs
     id="defs2">
    <linearGradient
       id="linearGradient885"
       osb:paint="solid">
      <stop
         style="stop-color:#ff0000;stop-opacity:1;"
         offset="0"
         id="stop883" />
    </linearGradient>
  </defs>
  <sodipodi:namedview
     id="base"
     pagecolor="#a0a0a0"
     bordercolor="#ff0000"
     borderopacity="1"
     inkscape:pageopacity="1"
     inkscape:pageshadow="2"
     inkscape:zoom="23.047619"
     inkscape:cx="24"
     inkscape:cy="21"
     inkscape:document-units="mm"
     inkscape:current-layer="layer1"
     showgrid="true"
     units="px"
     inkscape:window-width="1920"
     inkscape:window-height="1137"
     inkscape:window-x="1912"
     inkscape:window-y="-8"
     inkscape:window-maximized="1">
    <inkscape:grid
       type="xygrid"
       id="grid815" />
  </sodipodi:namedview>
  <metadata
     id="metadata5">
    <rdf:RDF>
      <cc:Work
         rdf:about="">
        <dc:format>image/svg+xml</dc:format>
        <dc:type
           rdf:resource="http://purl.org/dc/dcmitype/StillImage" />
        <dc:title />
      </cc:Work>
    </rdf:RDF>
  </metadata>
  <g
     inkscape:label="Layer 1"
     inkscape:groupmode="layer"
     id="layer1"
     transform="translate(0,-285.8875)">
    <path
       style="opacity:1;fill:#ffffff;fill-opacity:1;stroke:none;stroke-width:0.22048593;stroke-miterlimit:4;stroke-dasharray:none;stroke-opacity:1"
       d="m 5.3086165,291.04687 a 0.66145833,0.66145727 0 0 1 -0.6614584,0.66146 0.66145833,0.66145727 0 0 1 -0.6614583,-0.66146 0.66145833,0.66145727 0 0 1 0.6614583,-0.66146 0.66145833,0.66145727 0 0 1 0.6614584,0.66146 z"
       id="path1424"
       inkscape:connector-curvature="0" />
    <path
       style="opacity:1;fill:#ffffff;fill-opacity:1;stroke:none;stroke-width:0.22048594;stroke-miterlimit:4;stroke-dasharray:none;stroke-opacity:1"
       d="m 7.2235638,291.04687 a 0.66145837,0.66145728 0 0 1 -0.6614584,0.66146 0.66145837,0.66145728 0 0 1 -0.6614583,-0.66146 0.66145837,0.66145728 0 0 1 0.6614583,-0.66146 0.66145837,0.66145728 0 0 1 0.6614584,0.66146 z"
       id="path1424-2"
       inkscape:connector-curvature="0" />
    <path
       style="opacity:1;fill:#ffffff;fill-opacity:1;stroke:none;stroke-width:0.22048597;stroke-miterlimit:4;stroke-dasharray:none;stroke-opacity:1"
       d="m 9.1385108,291.04687 a 0.66145845,0.66145727 0 0 1 -0.6614582,0.66146 0.66145845,0.66145727 0 0 1 -0.6614585,-0.66146 0.66145845,0.66145727 0 0 1 0.6614585,-0.66146 0.66145845,0.66145727 0 0 1 0.6614582,0.66146 z"
       id="path1424-3"
       inkscape:connector-curvature="0" />
    <path
       style="opacity:1;fill:none;fill-opacity:1;stroke:#ffffff;stroke-width:0.73845208;stroke-linecap:butt;stroke-linejoin:round;stroke-miterlimit:2;stroke-dasharray:none;stroke-opacity:1"
       d="m 11.380696,290.7768 c 0.0036,1.72528 -0.797363,2.51903 -1.7132133,3.17391 -0.6373382,0.45573 -1.7299827,0.66804 -2.0048907,0.70872 -0.2547218,0.0377 -0.4866333,0.84957 -0.8298861,1.12918 -0.6865105,0.55922 -1.4605566,0.80006 -2.084692,0.80006 -0.6241353,0 0.5514684,-1.5665 0.5413139,-1.9663 -0.010155,-0.39981 -0.8535105,-0.33459 -1.5909782,-0.78647 -1.2935933,-0.79263 -2.0788464,-1.48233 -2.0931417,-3.07058 -0.017708,-1.9674 2.0989588,-3.29032 4.7614656,-3.42406 2.4933973,-0.12525 5.0104095,1.72124 5.0140225,3.43554 z"
       id="path1477"
       inkscape:connector-curvature="0"
       sodipodi:nodetypes="ssssssssss" />
    <circle
       style="opacity:1;fill:#ff0000;fill-opacity:1;stroke:none;stroke-width:0.26499999;stroke-miterlimit:4;stroke-dasharray:none;stroke-opacity:0"
       id="path1391"
       cx="10.691572"
       cy="287.89703"
       r="1.984375" />
  </g>
</svg>
