<?xml version="1.0" encoding="UTF-8" standalone="no"?>
<!-- Created with Inkscape (http://www.inkscape.org/) -->

<svg
   xmlns:dc="http://purl.org/dc/elements/1.1/"
   xmlns:cc="http://creativecommons.org/ns#"
   xmlns:rdf="http://www.w3.org/1999/02/22-rdf-syntax-ns#"
   xmlns:svg="http://www.w3.org/2000/svg"
   xmlns="http://www.w3.org/2000/svg"
   xmlns:sodipodi="http://sodipodi.sourceforge.net/DTD/sodipodi-0.dtd"
   xmlns:inkscape="http://www.inkscape.org/namespaces/inkscape"
   width="48"
   height="42"
   viewBox="0 0 12.7 11.1125"
   version="1.1"
   id="svg4512"
   inkscape:version="0.92.2 (5c3e80d, 2017-08-06)"
   sodipodi:docname="team.svg">
  <defs
     id="defs4506" />
  <sodipodi:namedview
     id="base"
     pagecolor="#a0a0a0"
     bordercolor="#ff0000"
     borderopacity="1"
     inkscape:pageopacity="1"
     inkscape:pageshadow="2"
     inkscape:zoom="23.047619"
     inkscape:cx="24"
     inkscape:cy="21.496137"
     inkscape:document-units="mm"
     inkscape:current-layer="layer1"
     showgrid="true"
     units="px"
     inkscape:window-width="1920"
     inkscape:window-height="1137"
     inkscape:window-x="1912"
     inkscape:window-y="-8"
     inkscape:window-maximized="1">
    <inkscape:grid
       type="xygrid"
       id="grid5084" />
  </sodipodi:namedview>
  <metadata
     id="metadata4509">
    <rdf:RDF>
      <cc:Work
         rdf:about="">
        <dc:format>image/svg+xml</dc:format>
        <dc:type
           rdf:resource="http://purl.org/dc/dcmitype/StillImage" />
        <dc:title></dc:title>
      </cc:Work>
    </rdf:RDF>
  </metadata>
  <g
     inkscape:label="Layer 1"
     inkscape:groupmode="layer"
     id="layer1"
     transform="translate(0,-285.8875)">
    <path
       style="fill:#ffffff;fill-opacity:1;fill-rule:evenodd;stroke:none;stroke-width:0.36279601px;stroke-linecap:butt;stroke-linejoin:miter;stroke-opacity:1"
       d="M 0.05291673,296.66001 H 4.1275001 l -1.4816668,-1.77667 c 0,0 0.6071879,-0.40115 0.7408333,-0.71065 0.1890039,-0.43772 0.189003,-0.98362 0,-1.42134 -0.1336454,-0.30951 -0.4181848,-0.58245 -0.7408333,-0.71066 -0.3422205,-0.13597 -0.7690296,-0.13597 -1.11125,0 -0.3226485,0.12826 -0.60718797,0.40115 -0.74083337,0.71066 -0.189003,0.43772 -0.1890039,0.98362 0,1.42134 0.1336454,0.3095 0.74083397,0.71065 0.74083397,0.71065 l -1.48166717,1.77667"
       id="path5086-6"
       inkscape:connector-curvature="0"
       sodipodi:nodetypes="cccsssssscc" />
    <path
       style="fill:#ffffff;fill-opacity:1;fill-rule:evenodd;stroke:none;stroke-width:0.36279604px;stroke-linecap:butt;stroke-linejoin:miter;stroke-opacity:1"
       d="M 8.5195834,296.66001 H 12.594167 L 11.1125,294.88334 c 0,0 0.607188,-0.40115 0.740833,-0.71065 0.189004,-0.43772 0.189003,-0.98362 0,-1.42134 -0.133645,-0.30951 -0.418184,-0.58245 -0.740833,-0.71066 -0.342221,-0.13597 -0.76903,-0.13597 -1.11125,0 -0.3226485,0.12826 -0.607188,0.40115 -0.7408334,0.71066 -0.189003,0.43772 -0.1890039,0.98362 0,1.42134 0.1336454,0.3095 0.7408344,0.71065 0.7408344,0.71065 l -1.4816676,1.77667"
       id="path5086-6-5"
       inkscape:connector-curvature="0"
       sodipodi:nodetypes="cccsssssscc" />
    <path
       style="fill:#ffffff;fill-opacity:1;fill-rule:evenodd;stroke:none;stroke-width:0.36279604px;stroke-linecap:butt;stroke-linejoin:miter;stroke-opacity:1"
       d="m 4.2862501,296.66001 h 4.0745833 l -1.4816667,-1.77667 c 0,0 0.6071879,-0.40115 0.7408334,-0.71065 0.1890038,-0.43772 0.189003,-0.98362 0,-1.42134 -0.1336455,-0.30951 -0.4181848,-0.58245 -0.7408334,-0.71066 -0.3422205,-0.13597 -0.7690296,-0.13597 -1.11125,0 -0.3226485,0.12826 -0.607188,0.40115 -0.7408334,0.71066 -0.189003,0.43772 -0.1890039,0.98362 0,1.42134 0.1336454,0.3095 0.740834,0.71065 0.740834,0.71065 l -1.4816672,1.77667"
       id="path5086-6-1"
       inkscape:connector-curvature="0"
       sodipodi:nodetypes="cccsssssscc" />
    <path
       style="fill:none;fill-rule:evenodd;stroke:#ffffff;stroke-width:0.26458332px;stroke-linecap:butt;stroke-linejoin:miter;stroke-opacity:1"
       d="m 1.8520833,294.79096 c 0,0 -0.4989015,-1.61776 0,-2.11666 2.0579753,-2.05798 6.6732744,-2.05798 8.7312497,0 0.498902,0.4989 0,2.11666 0,2.11666"
       id="path5280"
       inkscape:connector-curvature="0"
       sodipodi:nodetypes="cssc" />
    <path
       style="fill:none;fill-rule:evenodd;stroke:#ffffff;stroke-width:0.26458332px;stroke-linecap:butt;stroke-linejoin:miter;stroke-opacity:1"
       d="m 6.3499999,292.50208 v -2.11666"
       id="path5282"
       inkscape:connector-curvature="0" />
    <path
       style="fill:#ffffff;fill-opacity:1;fill-rule:evenodd;stroke:none;stroke-width:0.36279604px;stroke-linecap:butt;stroke-linejoin:miter;stroke-opacity:1"
       d="m 4.2862501,290.57459 h 4.0745833 l -1.4816667,-1.77667 c 0,0 0.6071879,-0.40115 0.7408334,-0.71065 0.1890038,-0.43772 0.189003,-0.98362 0,-1.42134 -0.1336455,-0.30951 -0.4181848,-0.58245 -0.7408334,-0.71066 -0.3422205,-0.13597 -0.7690296,-0.13597 -1.11125,0 -0.3226485,0.12826 -0.607188,0.40115 -0.7408334,0.71066 -0.189003,0.43772 -0.1890039,0.98362 0,1.42134 0.1336454,0.3095 0.740834,0.71065 0.740834,0.71065 l -1.4816672,1.77667"
       id="path5086-6-1-0"
       inkscape:connector-curvature="0"
       sodipodi:nodetypes="cccsssssscc" />
  </g>
</svg>
